<mxfile host="app.diagrams.net" agent="Mozilla/5.0 (Windows NT 10.0; Win64; x64) AppleWebKit/537.36 (KHTML, like Gecko) Chrome/134.0.0.0 Safari/537.36" version="26.1.1">
  <diagram name="Page-1" id="TUQ2DY7ftp61OSfz582z">
    <mxGraphModel dx="1050" dy="557" grid="1" gridSize="10" guides="1" tooltips="1" connect="1" arrows="1" fold="1" page="1" pageScale="1" pageWidth="850" pageHeight="1100" math="0" shadow="0">
      <root>
        <mxCell id="0" />
        <mxCell id="1" parent="0" />
        <mxCell id="kBno45TYfSy2K52loHYi-5" value="" style="edgeStyle=orthogonalEdgeStyle;rounded=0;orthogonalLoop=1;jettySize=auto;html=1;" edge="1" parent="1" source="kBno45TYfSy2K52loHYi-2" target="kBno45TYfSy2K52loHYi-3">
          <mxGeometry relative="1" as="geometry" />
        </mxCell>
        <mxCell id="kBno45TYfSy2K52loHYi-6" value="call methods" style="edgeLabel;html=1;align=center;verticalAlign=middle;resizable=0;points=[];" vertex="1" connectable="0" parent="kBno45TYfSy2K52loHYi-5">
          <mxGeometry x="-0.4" y="-3" relative="1" as="geometry">
            <mxPoint as="offset" />
          </mxGeometry>
        </mxCell>
        <mxCell id="kBno45TYfSy2K52loHYi-2" value="post controller&lt;div&gt;+create post()&lt;/div&gt;&lt;div&gt;+like post()&lt;/div&gt;" style="rounded=0;whiteSpace=wrap;html=1;" vertex="1" parent="1">
          <mxGeometry x="40" y="40" width="120" height="60" as="geometry" />
        </mxCell>
        <mxCell id="kBno45TYfSy2K52loHYi-7" value="" style="edgeStyle=orthogonalEdgeStyle;rounded=0;orthogonalLoop=1;jettySize=auto;html=1;" edge="1" parent="1" source="kBno45TYfSy2K52loHYi-3" target="kBno45TYfSy2K52loHYi-4">
          <mxGeometry relative="1" as="geometry" />
        </mxCell>
        <mxCell id="kBno45TYfSy2K52loHYi-8" value="call methods" style="edgeLabel;html=1;align=center;verticalAlign=middle;resizable=0;points=[];" vertex="1" connectable="0" parent="kBno45TYfSy2K52loHYi-7">
          <mxGeometry x="-0.0444" y="-1" relative="1" as="geometry">
            <mxPoint as="offset" />
          </mxGeometry>
        </mxCell>
        <mxCell id="kBno45TYfSy2K52loHYi-3" value="post service&lt;div&gt;+validate post()&lt;/div&gt;&lt;div&gt;+update like()&lt;/div&gt;" style="rounded=0;whiteSpace=wrap;html=1;" vertex="1" parent="1">
          <mxGeometry x="40" y="170" width="120" height="60" as="geometry" />
        </mxCell>
        <mxCell id="kBno45TYfSy2K52loHYi-4" value="post Repository&lt;div&gt;+save post()&lt;/div&gt;&lt;div&gt;+get posts()&lt;/div&gt;" style="rounded=0;whiteSpace=wrap;html=1;" vertex="1" parent="1">
          <mxGeometry x="40" y="320" width="120" height="60" as="geometry" />
        </mxCell>
      </root>
    </mxGraphModel>
  </diagram>
</mxfile>
